<?xml version="1.0" standalone="no"?>
<!DOCTYPE svg PUBLIC "-//W3C//DTD SVG 1.1//EN" "http://www.w3.org/Graphics/SVG/1.1/DTD/svg11.dtd">
<svg t="1551506997234" class="icon" style="" viewBox="0 0 1024 1024" version="1.1" xmlns="http://www.w3.org/2000/svg" p-id="2102" xmlns:xlink="http://www.w3.org/1999/xlink" width="48" height="48">
  <defs>
    <style type="text/css">

    </style>
  </defs>
  <path d="M915.1 463.9c0.1 81.8-24.2 157.9-66.1 221.4-55.3 83.7-224.4 215.2-298.5 270.8-21 15.7-49.8 15.7-70.8-0.1-72.5-54.5-235.8-181.5-291.5-260.4-46.1-65.3-73.1-144.9-73.1-230.9 0-221.2 179.1-400.6 400-400.6 221.2-0.1 399.6 178.3 400 399.8z" fill="#0DCEA7" p-id="2103">
  </path>
  <path d="M413.1 904.7c25.7 20.3 48.9 37.9 66.6 51.3 21 15.8 49.8 15.8 70.8 0.1 22.1-16.6 52.7-39.9 86.2-66.7-43.5 15.5-90.4 24-139.2 24-29-0.1-57.2-3-84.4-8.7zM515.1 64c-106.3 0-203 41.6-274.6 109.3 70.6-55.9 159.9-89.2 257-89.2 229 0 414.6 185.6 414.6 414.6 0 6.4-0.2 12.8-0.4 19.1 2.3-17.6 3.5-35.6 3.5-53.9C914.7 242.4 736.3 64 515.1 64z" fill="#0DCEA7" p-id="2104">
  </path>
  <path d="M497.4 84.2c-97.1 0-186.3 33.4-257 89.2-77.2 73-125.4 176.5-125.4 291.2 0 86 27.1 165.7 73.1 230.9 42.1 59.6 145.5 146.6 224.9 209.2 27.2 5.6 55.5 8.6 84.4 8.6 48.8 0 95.7-8.5 139.2-24 78.7-63 173.5-145.3 212.3-204.1 32.5-49.3 54.5-106.2 62.6-167.5 0.3-6.3 0.4-12.7 0.4-19.1 0.1-228.8-185.5-414.4-414.5-414.4zM479.8 837C282.2 837 122 676.8 122 479.2s160.2-357.8 357.8-357.8 357.8 160.2 357.8 357.8S677.4 837 479.8 837z" fill="#1DD49C" p-id="2105">
  </path>
  <path d="M479.8 121.5C282.2 121.5 122 281.7 122 479.2S282.2 837 479.8 837s357.8-160.2 357.8-357.8-160.2-357.7-357.8-357.7z m-17.7 639.2c-166.2 0-301-134.7-301-301s134.7-301 301-301 301 134.7 301 301-134.7 301-301 301z" fill="#2DDB92" p-id="2106">
  </path>
  <path d="M462.1 158.8c-166.2 0-301 134.7-301 301s134.7 301 301 301 301-134.7 301-301-134.7-301-301-301z m-17.6 525.6c-134.8 0-244.2-109.3-244.2-244.2S309.6 196 444.5 196s244.2 109.3 244.2 244.2-109.4 244.2-244.2 244.2z" fill="#3DE188" p-id="2107">
  </path>
  <path d="M444.5 196.1c-134.8 0-244.2 109.3-244.2 244.2s109.3 244.2 244.2 244.2 244.2-109.3 244.2-244.2-109.4-244.2-244.2-244.2z m-17.7 412c-103.5 0-187.3-83.9-187.3-187.3s83.9-187.4 187.3-187.4 187.3 83.9 187.3 187.3-83.8 187.4-187.3 187.4z" fill="#4CE77D" p-id="2108">
  </path>
  <path d="M426.8 233.4c-103.5 0-187.3 83.9-187.3 187.3S323.4 608 426.8 608s187.3-83.9 187.3-187.3-83.8-187.3-187.3-187.3z m-17.6 298.4c-72.1 0-130.5-58.4-130.5-130.5s58.4-130.5 130.5-130.5 130.5 58.4 130.5 130.5-58.4 130.5-130.5 130.5z" fill="#5CEE73" p-id="2109">
  </path>
  <path d="M409.2 401.3m-130.5 0a130.5 130.5 0 1 0 261 0 130.5 130.5 0 1 0-261 0Z" fill="#6CF468" p-id="2110">
  </path>
  <path d="M515.1 82c51.7 0 101.7 10.1 148.8 29.9 45.5 19.2 86.3 46.7 121.3 81.7S847.8 269.5 867 315c19.9 47.1 30 97.2 30.1 148.9 0.1 75.6-21.7 148.7-63.1 211.4-54 81.8-223.8 213.5-294.2 266.3-7.1 5.4-15.6 8.2-24.6 8.2-9 0-17.5-2.8-24.7-8.2-68.3-51.3-233-179-287.6-256.4-45.7-64.7-69.8-141-69.8-220.6 0-51.7 10.1-101.8 30-148.9 19.2-45.6 46.8-86.5 81.9-121.6 35.1-35.1 75.9-62.7 121.4-82C413.5 92.2 463.5 82 515.1 82m0-18c-220.9 0-400 179.3-400 400.6 0 86 27.1 165.7 73.1 230.9 55.7 78.9 219 205.9 291.5 260.4 10.5 7.9 23 11.9 35.5 11.9 12.4 0 24.9-3.9 35.3-11.8 74.1-55.5 243.2-187 298.5-270.7 41.9-63.5 66.3-139.6 66.1-221.4C914.7 242.4 736.3 64 515.1 64z" fill="#0EC69A" p-id="2111">
  </path>
  <path d="M515.1 271.5c105.7 0 191.3 85.6 191.3 191.3 0 105.7-85.7 191.3-191.3 191.3-105.7 0-191.3-85.7-191.3-191.3 0-105.6 85.6-191.3 191.3-191.3z" fill="#9CFFBD" p-id="2112">
  </path>
  <path d="M254.7 265.4c-4 0-8.1-1.3-11.4-4.1-7.7-6.3-8.8-17.6-2.5-25.3 48-58.6 104.6-87.8 106.9-89 8.9-4.5 19.7-1 24.2 7.9 4.5 8.8 1 19.7-7.8 24.2-0.5 0.3-52.5 27.3-95.5 79.8-3.6 4.2-8.7 6.5-13.9 6.5zM214.4 324.2c-3.2 0-6.5-0.9-9.4-2.7-8.5-5.2-11.1-16.3-5.9-24.8l5.9-9.6c5.2-8.5 16.3-11.1 24.8-5.9s11.1 16.3 5.9 24.8l-5.9 9.6c-3.4 5.5-9.4 8.6-15.4 8.6z" fill="#FFFFFF" p-id="2113">
  </path>
</svg>
